<svg width="55" height="55" viewBox="0 0 55 55" fill="none" xmlns="http://www.w3.org/2000/svg">
<path d="M48.783 36.3352C48.9147 35.37 48.9844 34.3856 48.9844 33.3848C48.9844 27.3663 46.5099 21.8613 42.4824 17.9131C42.4568 17.8854 42.4304 17.8594 42.4023 17.8351C39.3374 14.8613 35.3863 12.7846 30.9463 12.057C30.588 10.4498 29.1558 9.24512 27.448 9.24512C25.7384 9.24512 24.305 10.4498 23.9463 12.0565C21.5796 12.443 19.3103 13.2206 17.1904 14.3754C16.6714 14.6582 16.4792 15.3098 16.7612 15.8302C16.9555 16.1881 17.323 16.3912 17.7028 16.3912C17.8753 16.3912 18.0502 16.3492 18.2126 16.2607C20.0707 15.2486 22.0555 14.5579 24.1254 14.2012C24.6609 15.5146 25.9483 16.4428 27.448 16.4428C28.946 16.4428 30.2317 15.515 30.7671 14.2016C33.7267 14.7131 36.4412 15.8918 38.7638 17.5707H34.6754C32.4725 17.5707 30.6803 19.3688 30.6803 21.5789C30.6803 23.7874 32.4725 25.5842 34.6754 25.5842C35.6968 25.5842 36.5272 26.42 36.5272 27.4468C36.5272 28.4741 35.6968 29.3095 34.6754 29.3095H34.0565C31.8552 29.3095 30.0643 31.1063 30.0643 33.3152C30.0643 35.5253 31.8552 37.3233 34.0565 37.3233H46.4449C44.6258 46.1773 36.7991 52.8546 27.448 52.8546C23.188 52.8546 19.2449 51.4682 16.0415 49.123H20.1412C22.3442 49.123 24.1364 47.3253 24.1364 45.1148C24.1364 42.9063 22.3442 41.1096 20.1412 41.1096C19.1198 41.1096 18.2894 40.2741 18.2894 39.2469C18.2894 38.2213 19.1198 37.3871 20.1412 37.3871H20.7572C22.9602 37.3871 24.7523 35.5891 24.7523 33.379C24.7523 31.1684 22.9602 29.3704 20.7572 29.3704H8.45737C9.05743 26.4788 10.3104 23.7697 12.1668 21.3901C12.5306 20.9235 12.4483 20.2491 11.9826 19.8841C11.5172 19.519 10.8446 19.6017 10.4803 20.0687C7.48932 23.9036 5.9082 28.5085 5.9082 33.3848C5.9082 39.3648 8.34114 44.7854 12.2654 48.7025C12.3275 48.7831 12.4001 48.8544 12.4823 48.9148C16.3604 52.6796 21.6388 55.0001 27.448 55.0001C38.2783 55.0001 47.2652 46.9347 48.7632 36.474C48.7729 36.4287 48.7792 36.3826 48.783 36.3352ZM8.13637 31.5163H20.7572C21.7798 31.5163 22.6119 32.3517 22.6119 33.379C22.6119 34.4058 21.7798 35.2416 20.7572 35.2416H20.1412C17.9399 35.2416 16.1489 37.038 16.1489 39.2469C16.1489 41.457 17.9399 43.2551 20.1412 43.2551C21.1638 43.2551 21.9959 44.0892 21.9959 45.1148C21.9959 46.1416 21.1638 46.9775 20.1412 46.9775H13.5733C10.1572 43.4661 8.04867 38.6682 8.04867 33.3848C8.04867 32.7562 8.07888 32.1331 8.13637 31.5163ZM27.448 14.2969C26.649 14.2969 25.9995 13.6444 25.9995 12.8425C25.9995 12.0419 26.649 11.3906 27.448 11.3906C28.2448 11.3906 28.8931 12.0419 28.8931 12.8425C28.8931 13.6444 28.2448 14.2969 27.448 14.2969ZM34.0565 35.1774C33.0352 35.1774 32.2047 34.342 32.2047 33.3148C32.2047 32.2896 33.0352 31.455 34.0565 31.455H34.6754C36.8768 31.455 38.6677 29.657 38.6677 27.4468C38.6677 25.2367 36.8768 23.4387 34.6754 23.4387C33.6528 23.4387 32.8207 22.6045 32.8207 21.5789C32.8207 20.5517 33.6528 19.7162 34.6754 19.7162H41.2559C44.7248 23.2515 46.8439 28.0981 46.8439 33.3848C46.8439 33.9891 46.815 34.587 46.7608 35.1774H34.0565Z" fill="white"/>
<path d="M14.0312 18.9365C14.2368 18.9365 14.4449 18.8773 14.6287 18.7531L14.6467 18.7409C15.1369 18.4099 15.2661 17.7431 14.9354 17.2517C14.6052 16.7604 13.9401 16.6307 13.45 16.9622L13.432 16.9744C12.9418 17.3054 12.8126 17.9726 13.1428 18.4636C13.3497 18.7707 13.6871 18.9365 14.0312 18.9365Z" fill="white"/>
</svg>
