<svg width="44" height="44" viewBox="0 0 44 44" fill="none" xmlns="http://www.w3.org/2000/svg">
<path d="M16.5839 18.1793C18.2534 18.1793 19.6068 16.8259 19.6068 15.1564C19.6068 13.4869 18.2534 12.1335 16.5839 12.1335C14.9144 12.1335 13.561 13.4869 13.561 15.1564C13.561 16.8259 14.9144 18.1793 16.5839 18.1793Z" fill="white"/>
<path d="M41.3969 26.2824C39.9695 24.9389 38.1641 24.0572 36.1908 23.8053V8.43889C36.1908 6.80149 35.5191 5.33202 34.4695 4.24042C33.3779 3.14881 31.9084 2.51904 30.271 2.51904H5.91985C4.28244 2.51904 2.81298 3.1908 1.72137 4.24042C0.629771 5.33202 0 6.80149 0 8.43889V27.7939V29.5992V33.5038C0 35.1412 0.671756 36.6106 1.72137 37.7023C2.81298 38.7939 4.28244 39.4236 5.91985 39.4236H29.4733C31.0267 40.6832 32.958 41.4809 35.0992 41.4809C37.5763 41.4809 39.8015 40.4732 41.3969 38.8778C42.9924 37.2824 44 35.0572 44 32.5801C44 30.103 42.9924 27.8778 41.3969 26.2824ZM2.22519 8.43889C2.22519 7.43126 2.64504 6.50759 3.31679 5.87782C3.98855 5.20607 4.91221 4.78622 5.91985 4.78622H30.271C31.2786 4.78622 32.2023 5.20607 32.874 5.87782C33.5458 6.54958 33.9656 7.47324 33.9656 8.48088V21.5801L27.7519 15.3664C27.3321 14.9465 26.6183 14.9045 26.1565 15.3664L16.7939 24.771L10.4542 18.3893C10.0344 17.9694 9.32061 17.9274 8.85878 18.3893L2.22519 25.1068V8.43889ZM5.87786 37.2824V37.1984C4.87023 37.1984 3.94656 36.7786 3.27481 36.1068C2.64504 35.4351 2.22519 34.5114 2.22519 33.5038V29.5992V28.2977L9.65649 20.8244L15.9962 27.1641C16.416 27.5839 17.1298 27.5839 17.5916 27.1641L26.9542 17.7595L33.084 23.9313C32.958 23.9732 32.8321 24.0152 32.7061 24.0572C32.5382 24.0992 32.3702 24.1412 32.1603 24.2252C31.9924 24.2671 31.8244 24.3511 31.6565 24.3931C31.5305 24.4351 31.4466 24.4771 31.3206 24.561C31.1527 24.645 31.0267 24.687 30.9008 24.771C30.6908 24.8969 30.4809 25.0229 30.271 25.1488C30.145 25.2328 30.0611 25.2748 29.9351 25.3587C29.8511 25.4007 29.8092 25.4427 29.7252 25.4847C29.3473 25.7366 29.0114 26.0305 28.7176 26.3664C27.1221 27.9618 26.1145 30.187 26.1145 32.6641C26.1145 33.2939 26.1985 33.8816 26.3244 34.5114C26.3664 34.6793 26.4084 34.8053 26.4504 34.9732C26.5763 35.3931 26.7023 35.8129 26.8702 36.2328V36.2748C27.0382 36.6106 27.2061 36.9885 27.416 37.2824H5.87786ZM39.7595 37.2824C38.542 38.5 36.9046 39.2137 35.0573 39.2137C33.2939 39.2137 31.6565 38.5 30.4809 37.3664C30.313 37.1984 30.145 36.9885 29.9771 36.8206C29.8511 36.6946 29.7252 36.5267 29.5992 36.4007C29.4313 36.1908 29.3053 35.9389 29.1794 35.687C29.0954 35.519 29.0114 35.3931 28.9275 35.2252C28.8435 35.0152 28.7595 34.7633 28.7176 34.5114C28.6756 34.3435 28.5916 34.1335 28.5496 33.9656C28.4656 33.5458 28.4237 33.0839 28.4237 32.6221C28.4237 30.7748 29.1794 29.1374 30.355 27.9198C31.5305 26.7022 33.2099 25.9885 35.0573 25.9885C36.9046 25.9885 38.542 26.7442 39.7595 27.9198C40.9771 29.1374 41.6908 30.7748 41.6908 32.6221C41.6908 34.4274 40.9351 36.0648 39.7595 37.2824Z" fill="white"/>
<path d="M35.8552 28.0878C35.7712 28.0039 35.6452 27.9199 35.4773 27.8359C35.3513 27.7939 35.2254 27.752 35.0994 27.752C35.0574 27.752 35.0574 27.752 35.0574 27.752C35.0155 27.752 35.0155 27.752 35.0155 27.752C34.8895 27.752 34.7636 27.7939 34.6376 27.8359C34.5116 27.8779 34.3857 27.9619 34.2597 28.0878L31.6567 30.6909C31.2368 31.1107 31.2368 31.8245 31.6567 32.2863C32.0765 32.7062 32.7903 32.7062 33.2521 32.2863L33.9239 31.6145V36.2329C33.9239 36.8626 34.4277 37.3665 35.0574 37.3665C35.6872 37.3665 36.191 36.8626 36.191 36.2329V31.6145L36.8628 32.2863C37.2826 32.7062 37.9964 32.7062 38.4582 32.2863C38.8781 31.8665 38.8781 31.1527 38.4582 30.6909L35.8552 28.0878Z" fill="white"/>
</svg>
